/* XPM */
static char *_3d911e8604b48efd35b27dfc3b5929ek7ItenaAd0bogRmx[] = {
/* columns rows colors chars-per-pixel */
"64 64 228 2 ",
"   c black",
".  c #080000",
"X  c #000008",
"o  c #100000",
"O  c #001000",
"+  c #101008",
"@  c #000018",
"#  c #101010",
"$  c #300008",
"%  c #201008",
"&  c #281010",
"*  c #083008",
"=  c #083010",
"-  c #103810",
";  c #183818",
":  c #282000",
">  c #202808",
",  c #382808",
"<  c #303008",
"1  c #282010",
"2  c #302010",
"3  c #382010",
"4  c #382810",
"5  c #382818",
"6  c #303018",
"7  c #080020",
"8  c #080028",
"9  c #080828",
"0  c #100828",
"q  c #081028",
"w  c #181020",
"e  c #181828",
"r  c #080030",
"t  c #080038",
"y  c #080838",
"u  c #100830",
"i  c #181030",
"p  c #181038",
"a  c #281820",
"s  c #201838",
"d  c #302820",
"f  c #382820",
"g  c #303028",
"h  c #202038",
"j  c #302038",
"k  c #303038",
"l  c #400808",
"z  c #580008",
"x  c #480810",
"c  c #401018",
"v  c #601010",
"b  c #681010",
"n  c #701810",
"m  c #483800",
"M  c #403008",
"N  c #503808",
"B  c #402810",
"V  c #402818",
"C  c #403010",
"Z  c #483810",
"A  c #403018",
"S  c #483018",
"D  c #403818",
"F  c #403020",
"G  c #483820",
"H  c #483028",
"J  c #104008",
"K  c #104018",
"L  c #104818",
"P  c #184818",
"I  c #185018",
"U  c #204018",
"Y  c #284818",
"T  c #205018",
"R  c #184020",
"E  c #204020",
"W  c #285020",
"Q  c #285028",
"!  c #305820",
"~  c #584808",
"^  c #585808",
"/  c #484018",
"(  c #504018",
")  c #584818",
"_  c #685800",
"`  c #605008",
"'  c #685808",
"]  c #605018",
"[  c #686008",
"{  c #706000",
"}  c #706800",
"|  c #786800",
" . c #706008",
".. c #706808",
"X. c #786808",
"o. c #787008",
"O. c #706010",
"+. c #504028",
"@. c #584828",
"#. c #405020",
"$. c #485028",
"%. c #585028",
"&. c #584830",
"*. c #685020",
"=. c #605820",
"-. c #605028",
";. c #406028",
":. c #486828",
">. c #506828",
",. c #506830",
"<. c #507030",
"1. c #587030",
"2. c #587830",
"3. c #507038",
"4. c #587838",
"5. c #706828",
"6. c #100840",
"7. c #201840",
"8. c #282040",
"9. c #302840",
"0. c #382840",
"q. c #302048",
"w. c #302848",
"e. c #383048",
"r. c #302050",
"t. c #382850",
"y. c #382858",
"u. c #383050",
"i. c #403040",
"p. c #403840",
"a. c #403050",
"s. c #403850",
"d. c #403058",
"f. c #403858",
"g. c #483858",
"h. c #403060",
"j. c #483868",
"k. c #304040",
"l. c #484848",
"z. c #705858",
"x. c #507048",
"c. c #607840",
"v. c #484060",
"b. c #504060",
"n. c #504860",
"m. c #504070",
"M. c #584870",
"N. c #584878",
"B. c #605068",
"V. c #685870",
"C. c #881018",
"Z. c #A01818",
"A. c #807008",
"S. c #806810",
"D. c #807810",
"F. c #907818",
"G. c #807830",
"H. c #807838",
"J. c #709048",
"K. c #78A050",
"L. c #789060",
"P. c #888830",
"I. c #989030",
"U. c #A09838",
"Y. c #A8A038",
"T. c #B8B038",
"R. c #88A858",
"E. c #B8A848",
"W. c #98B860",
"Q. c #90A870",
"!. c #C0B848",
"~. c #A0C868",
"^. c #A8C868",
"/. c #A0C870",
"(. c #A8C870",
"). c #A8D070",
"_. c #A8D078",
"`. c #B0D070",
"'. c #B0D078",
"]. c #B8D878",
"[. c #C8C848",
"{. c #C8C850",
"}. c #D0D050",
"|. c #D8D050",
" X c #E0D858",
".X c #E8E858",
"XX c #E0E060",
"oX c #E8E060",
"OX c #E8E860",
"+X c #F0E860",
"@X c #E8F060",
"#X c #F0F060",
"$X c #F8F860",
"%X c #F8F068",
"&X c #F0F868",
"*X c #F8F868",
"=X c #F8F870",
"-X c #604880",
";X c #605080",
":X c #605088",
">X c #685088",
",X c #685888",
"<X c #685090",
"1X c #685890",
"2X c #705890",
"3X c #705898",
"4X c #706090",
"5X c #706098",
"6X c #786098",
"7X c #7860A0",
"8X c #807898",
"9X c #98B080",
"0X c #A0B098",
"qX c #B8D090",
"wX c #C0E090",
"eX c #D0E0B0",
"rX c #D8F0B0",
"tX c #C0B8C0",
"yX c #E0F0C0",
"uX c #E0F0C8",
"iX c #E8F8D0",
"pX c #F0F8D0",
"aX c #F0F8D8",
"sX c #D8C8E0",
"dX c #E8F0E0",
"fX c #F0E0F0",
"gX c #F8E0F8",
"hX c #F8E8F8",
/* pixels */
"                    1 < E.I.I.I.H.5.( 1 # e .           5.*X-.{.!.1         ) 1                                                 ",
"                        / |.G ( E.*X#X*X#X XY.5 o       % #X*X5.I.%X/       ) !.%             .                                 ",
"                          % {.*XE.C  X#XOXOX#X*XoX5.% .    XOX$X5.O.#X<     ) ) I.          . 1                                 ",
"                            o P.%X{.M 5.*XOXOX&X@X#X#XI.% / *XOX#X5._ OX-.. D G.*X%     % . 1 1                                 ",
"                                5.#X!.[ 4 }.#XI.Y.#X#X#X#XA P.F.[.*X=.Z *XH.6 Y.!.G..   ) 1 5.(                                 ",
"                        1 4 ( =.< !.#X5.' Z G.&XI._ F.#X#X*X!.2 _ T.*XN Z *XD [.=.*X1 . !.6 5.5.X                               ",
"                          % 2 ( {.( }.#XG.N  .}.%XT.{ { I.*XOX#XH., !.H. .5.( [., #XU.1 !.Y.( Y.+                               ",
"                            . Z ` !.4 *X#XF.D M !.#X{.{ X.F.#X#X#XOX5 *XG  .) [.C #X#X2 2  XI.|.%                               ",
"                                4 , G G |. X*.~ Z {.*X X} X.{ U.&XOX*X6 #XM 5.[.C U.+XU.Y.5.XXXX#                               ",
"                          % 6 ) G.E.!.E.U.H.H.5.) 4 4 ( ( X.A.X.{ OXOXU.!.*.5.T.Z ' *XA #X%.#X@X1   + +                         ",
"                      . G.OX*X#X#XOXOXOXOXOX@X#X#X*X*X*XOXG.A Z A.{ OXOX2 XX=.E.~ [ M XXH. X#X#X1   ) >                         ",
"                    % Y.#XOXOXOX#X*X#XOX|..X.X|.}.#X*X*X%X#X#X X4 o.{ *.E.Y.*XY.~ ) G.%X/ *X[.#X2 % }./                         ",
"                  % .X#X#X*XOXI.] , : : 2 2 , ' | { { X.F.[.OX%XXXM X., *X2 *XI.` 1 *XE.E.{.T.#XV P.) I.                        ",
"                1 #XOX#XI.4 5.{.#X&X*X*X*X*XOXU.*.C M ` A.| { D.*XI.' ' I.E.!.I.' }.#XG *XX.Y.#XG [.=.{.                        ",
"              1 $XOX#X@.}.*X#XOXOXOXOXOXOXOXOXOX#X*X#XE.G A.X.X.[.#XA o.C *XG U., *X|.G.oX{ F.*X-.X.P.OX                        ",
"            1 %X*XH.( OXOXOXOXOXOXOXOXOXOXOXOXOXOXOXOXOX*X2 A.X.{ *X}.o.Z OX@.' I.5.C *XF.X.Z *X5.{ !.#X+                       ",
"          . *X X4 !.#XOXOXOXOXOXOXOXOXOXOXOXOXOX#X@XOX%XT.~ ( X.X.Y.*XM ' E.Y.1 *XI.!.oX{ o.4 #XI.N #X#Xo                       ",
"        . 5.=.5.*XOXOXOX#X%X%X%X%X%X#X+XOX.X X[.!.[.[.U.} X.5 ] X.{ %X( o.5.#X5.H.) *XF.X.X.=.OXY.G 5.*X#                       ",
"        ) *X#X#XOXOX&XT.F.D.D.X.{ { { { } { ` ~ ^ ` ' o.X.X.~ +. .X.U.!.~ < *X5 G.#X+X{ X.~ E.OXE.G.< *X1                       ",
"      1 *XOXOXOX#X+XD.X.X.X.A.o. .D C C Z ) `  .' ' Z Z A.X.X.4 @.o.{ *XA 4 *XH.4 %XF.X.A.% *XOXE.I.` &XA                       ",
"    % .XOXOXOX*XI.{ X.A.' / C C ~ A.A.A.X. .' ` ~ ~  .~ C X.X.N +.O.X.*XE.2 *XXXY.oX{ o.D O.%X#XI.-.{ &X*.                      ",
"  o Y.#XOXOX+XX.o. .Z 4 A  . .` ~ 4 5 5 5 G G +.+.@.F C +.X.X.X.5 &.| T.#X% OXOX#XS.A.) 4 T.OX#X/ ) { &X@.                      ",
"  =.*XOXOX*X{ ~ 5 G @.+.4 f H H &.+.@.@.&.&.@.@.&.@.@.&.4 C A.o.Z @.4 X.*X5. XOX*X| ] G ` @XOX}.-. .{ {.A   X @ X               ",
"1 *XOXOX+X{ 4 +.&.G 4 ` { { | A.D.F.D.X.{ { Z Z 4 G &.@.@.G N o.' H 5 { OXI.{.@XT.] &.4 D.*XOX-.( A. ./ < @ s.f.X               ",
"!.+X#X[.` 5 -.G 2 ` F.{.#X%X&X%X%X#X%X%X%X%X*XT.F.~ 2 @.@.5 5 X.o.5 G A.I.!.E.*X) &.F ' T.+X#X-.N 4 M !.7 V.V.i                 ",
"*X%XF.M G +.4 E.*X*X*X#X X{.!.U.U.E.E. XOX*X*X#X%X=X|., G +.F Z A.C +.] M a a 3 @.@.C } %XOX|.4 =.G 6 w n.j B.X   1 %         . ",
"#X` 5 H 4 I.%XE.5.( 1 % o s m.i i 6 5.2 , 1 2 I.OX( a g k A 5 6 X.~ +.e q.u.0.3Xf 5 X.F.*XY.4 Z *.~ u l.i B.s % H.5.    . 1 A % ",
"A F 4 U.E.( % o           0 2X# I.{., Z ] X.A. .% >Xr.t.u.p a A ~  .5 6.8.t.t.;X<X2 o.I.3 ' M OXm h s.0 j V.g 5.{ 1 % =.A G.1   ",
"A *.( # .                 7 D *XI.N A.A.' ~ Z ' b.m.w.t.u.6.6.p 4 4 6.6.8.t.t.f.<Xb.` N A., }.B j u.0 t.B.w.Z X.2 5.{.A OX%     ",
"1 o                     . G.}.Z | N 5 d 5.Y.X.M >X>X1Xu.u.8 p 6.p p 6.p 8 0.n.1X7.1X, A.M !.#Xh u.i q.s.V.0 M 5.OXE.G.*XA       ",
"                        5.@X` ~ a i i t./ G  .f 3X0 m.t.t.w.8 p p p 6.0 t.t.w.>X-Xm.f ~ C U.2 u.7.9 B.w.n.a *XI.B =.#XY.o       ",
"                    O # *X*.w ;X0 8.w.s ( [.C b.0 N.t.u.u.t.0.9 p p 8 u.t.t.u.0.>Xh.s 2 I.*X5 q.0 w.k 0 u |.Z , Y.&X*X+ O       ",
"                  O E 6 H.1 e :Xi d.i u =.[.` b.r.m.u.t.u.u.u.p p p s t.u.t.8.t.n.m.q.Z Y.*XA 0 s s.s w w ' M / *XOX{.z.=       ",
"                - qX8X-.#.6 $.h.-X0 u p G.[.X.<Xq ;Xp @ X s u.7.u p 8.0.s X 7 8 p q g. .F.*X( p i q B.B.1 Z 5.*X#XOX2 rXaXl..   ",
"            O x.iXtX1 >.1.) G h 1Xu p 0 !.!.X.N.j.0 w o V.w y 6.p p 7.y w fXx . w 1Xf X.[ *X) t.s s n.V.Z G.*X|.[.*XK.^.'.pXx.O ",
"            9XiXdX/ ,.1.1.,.P.i 1X8 u 9  XI.X.g 1Xd.. x x x u 9 9 9 9 0 x $ Z.o . ,XM A.{ %X5.8.s p n.f.I.=XF.D.%XE.K.'.(.^.iXx.",
"        . :.iXeX,.4.2.,.6 D 5 a >Xu u u s I.X.M >X0 0.o c & u 8 p p i u @ q q i i m.' Z { .XG.d 7 0 B.r |.| ` Y.*XA 1.,.'.(.~.aX",
"        x.aXqX;.$.6 ) U.*XoX{.H.d.N.u u u ) | { i.i i 9 r i i 7.0 i s q w.s 0 s m.1 A.1 3 I.H.G 8.n.V.e Z N [.{.> 1.1.1.:.W.(.'.",
"      W aXwX3.#./ / D A ) U. X*Xi >X:Xp i 5.5.%.5 s.7.s u.0 s 8.s q 7.i i u.s.2X>Xm.1 #XY.6 9Xl.-X,Xw.6 A.A.) > K ;.1.1.1.>.(.^.",
"    * uXwX(.1.1.1.1.4.:.P 1 5.D }.h.>X>XV.H.5.:X<X>X1Xt.i s s w.i q t.p i 0 w.>X>X>X<X5 *XOX4X>X;Xs f ..N %.E.H.G > <.1.1.1.,.'.",
"  # Q.yX).c.1.1.1.2.U P 5.|.C ` O. .) 5.5._ F >X>X<X:Xt.0 -X-Xy.0 0 r.:X2X1X7.h h.-X>X-XZ Y.OXW./ ..o.o. X-.% > U I - 4.1.1.1.R.",
". & rX(.~.<.1.1.1.! P 1 U.Z X.X.X.X.X.X.X. .p.>Xm.7 0 q >Xb.7.h.>X>Xh.w.0.N.1X7.8.@ 1X<X< o.I.OX XI.I.X.D.!.XX!.I.1 I U 2.1.1.<.",
"l Y yX).c.1.1.1.,.L U G.N X.X.X. .X.X.X.X.X.g ;Xu.0 i 3X>Xt.a.p t 8 p d.8.f.N.1X9 0 2X<X4 o.X.o.D.F.T..X{.F.' {.*X*X% W ;.1.1.<.",
"v x.qX_.,.1.1.1.K < 2 P.A.' ( 4 S.X.X.' ` -.( <Xw.7 >Xy.;X7 8 u.w.9 d.p 9 q u M.7.0 1X>XM X.X.X.X.X.X.X.F..XE.1 Z *.OXS U 4.1.1.",
"n 0X~.~.<.1.1.W 6 &.5.) 4 1 N X.X.Z 2 @.-.-.@.n.d.q 1Xd.s p p w.u.9 u.8.p w.p :Xj.e.<Xb.` X.( X.A.o.o.o.X.A.|.XX& A 1 G.=.,.1.1.",
"( eX(.R.1.1.1.R +.2 5.A G ~ X.Z 5 -.-.-.-.-.-.@.b.q 1X0.t.u.u.t.t.0 u.u.u.t.u.<Xm.n.1X1 -.-.-.-.G ( X.X.X.' X.OX X2 @.F < S ,.1.",
"/ qX(.J.1.1.<.Y 6 5 -.-.6 ( F @.-.-.-.-.-.-.-.-.-.@.V.d.t.t.t.t.t.w u.t.t.t.s.>Xh.<Xj.( -.-.-.-.-.-.(  .X.N 4 ' *X*.5 @.@.Y 4 1.",
"Q '.).c.1.1.;.6 @.-.-.@.5 %.-.-.-.-.-.-.-.-.-.-.-.-.-.-.p.a.a.u.u.s a.s.p.p.s.>Xr.>Xa -.-.-.-.-.-.-.-.( X.X.6 F 5.U.A A @.R 4.1.",
"x.).`.3.1.1.! @.-.-.5 ( -.-.-.-.-.-.-.-.-.-.-.-.-.-.-.-.-.-.-.-.-.-.-.-.-.-.-.B.w V.-.-.-.-.-.-.-.@.-.-.Z X.X.F A I.&.A A R 1.1.",
":.).`.3.1.1.! @.@.5 5 G -.@.S @.-.-.-.-.-.-.-.-.-.-.-.-.-.-.-.-.-.-.-.-.-.-.-.-.&.-.-.-.-.-.-.-.-.-.-.-.A X.o.4 &.6 @.@.6 ! 1.1.",
"Q `.`.3.1.1.W @.A G @.5 @.@.G A @.-.-.-.-.-.-.-.-.-.-.-.-.-.-.-.-.-.-.-.-.-.-.-.-.-.-.-.-.-.-.-.@.G @.@.F 5 / A H @.@.@.U 1.1.,.",
"! '.`.3.1.1.;.d h g.8X8X8XV.b.s a G %.@.@.+.-.-.-.-.-.-.-.-.-.-.-.-.-.-.-.-.-.-.-.-.-.-.-.@.-.-.A G H d 8XtXsXtXtXb.g @.U 3.1.<.",
"U '.`.x.1.1.1.x.hXhXhXhXhXhXhXhXsXb.# ( @.@.@.-.-.-.-.-.-.-.-.-.-.-.-.-.-.-.-.-.-.-.-.-.-.A @.%.f k tXhXhXgXgXgXhXhXsXk.:.1.1.J.",
"D '.).c.1.1.4.J hXgXgXgXgXgXgXgXgXhXhXi.C +.G ( -.-.-.-.-.-.-.-.-.-.-.-.-.-.-.-.-.-.-.-.-.G +.k tXhXhXhXgXgXgXgXgXgXhX; 4.1.,.).",
"n W.).L.1.1.2.- eXgXgXgXgXhXhXgXhXhXhXhX0Xo +.G -.-.-.-.-.-.-.-.-.-.-.-.-.-.-.-.-.-.-.-.+.e 8XhXfXsXtXtXfXhXgXgXgXgXl.:.1.1.c.`.",
"C.<.).Q.1.1.1.T c.hXgXhXtX6X:X1X>X:X4X8XtXhX0X4 +.-.-.-.-.-.-.-.-.-.-.-.-.-.-.-.-.A -.g k 7X2X1X1X2X4X4X>X2XtXhXgXfXP <.1.<.~.(.",
"v P './.,.1.1.;.- hXhXtX4X5X4X4X4X4X4X4X4X>X2X6Xd 5 @.-.-.-.-.-.-.-.-.-.-.-.-.-.-.f h ;X6X4X4X4X4X4X4X4X4X4X4X,XtX- P ,.4.c.'.^.",
"z C `.`.<.1.1.;.K 0X>X4X4X4X4X4X4X4X4X4X4X4X4X4X6Xf.g @.-.-.-.-.-.-.-.-.-.-.-.-.&.9.4X4X4X4X4X4X4X4X4X4X4X4X4X4X= I I - R 4.J.J.",
"v c ~.K.W ,.;.! P R 6X4X4X4X4X4X4X4X4X4X4X4X4X4X4X5X,Xk g -.-.-.-.-.-.-.-.-.-.H w.4X4X4X4X4X4X4X4X4X4X4X4X4X,X- I P R (.).K.c.R.",
"b I E ;.- - I K I K 4X4X4X4X4X4X4X4X4X4X4X4X4X4X4X4X4X2Xe.F -.-.-.-.-.-.-.@.+.u.n.4X4X4X4X4X4X4X4X4X4X4X4X6XE I P K ].(.W.J.x.x.",
"> $.x.W.].'.R P P J 4X4X4X4X4X4X4X4X4X4X4X4X4X4X4X4X4X4X4Xa.e.@.@.-.-.( F 0.d.v.6X4X4X4X4X4X4X4X4X4X4X4X4X6Xk.P P R.~.K.'.(.(.wX",
"iXrX).(.c.4.c.:.I - 7X4X4X4X4X4X4X4X4X4X4X4X4X4X4X4X4X4X4X,Xa.e.k G -.F 9.f.s.6X4X4X4X4X4X4X4X4X4X4X4X4X4X4XM.P P ].,.1.<.W.).(.",
").).J.,.1.1.1.1.W n.5X4X4X4X4X4X4X4X4X4X4X4X4X4X4X4X4X4X4X4X4Xa.a.w.&.w.f.f.;X4X4X4X4X4X4X4X4X4X4X4X4X4X4X4X5XJ P (.1.1.1.<.J.'.",
"(.,.1.1.1.1.1.c.- 7X4X4X4X4X4X4X4X4X4X4X4X4X4X4X4X4X4X4X4X4X5X-Xf.a.9.f.f.a.4X4X4X4X4X4X4X4X4X4X4X4X4X4X4X4X6XE W <.1.1.1.1.1.,."
};
