/* XPM */
static char *f4e86dddca5f44489b9b0f64b5f346a6Ol8dwABngF9Nk387[] = {
/* columns rows colors chars-per-pixel */
"64 64 223 2 ",
"   c black",
".  c #100010",
"X  c #180010",
"o  c #180018",
"O  c #101010",
"+  c #181018",
"@  c #200018",
"#  c #200818",
"$  c #380810",
"%  c #181820",
"&  c #200820",
"*  c #280820",
"=  c #280828",
"-  c #201020",
";  c #281020",
":  c #281820",
">  c #281028",
",  c #301028",
"<  c #301030",
"1  c #301830",
"2  c #381830",
"3  c #381038",
"4  c #182020",
"5  c #182828",
"6  c #282028",
"7  c #282830",
"8  c #382030",
"9  c #382038",
"0  c #283830",
"q  c #283838",
"w  c #383038",
"e  c #401838",
"r  c #284038",
"t  c #304038",
"y  c #384038",
"u  c #383040",
"i  c #482040",
"p  c #402840",
"a  c #502048",
"s  c #502848",
"d  c #503048",
"f  c #582850",
"g  c #583850",
"h  c #602850",
"j  c #603058",
"k  c #703060",
"l  c #703868",
"z  c #783868",
"x  c #284040",
"c  c #284840",
"v  c #384040",
"b  c #304840",
"n  c #384840",
"m  c #385048",
"M  c #385850",
"N  c #386050",
"B  c gray25",
"V  c #484848",
"C  c #405048",
"Z  c #485848",
"A  c #484850",
"S  c #584850",
"D  c #405850",
"F  c #485850",
"G  c #505858",
"H  c #704848",
"J  c #604058",
"K  c #406058",
"L  c #486058",
"P  c #506050",
"I  c #506058",
"U  c #586058",
"Y  c #506858",
"T  c #586858",
"R  c #606050",
"E  c #684860",
"W  c #704868",
"Q  c #785870",
"!  c #486860",
"~  c #586860",
"^  c #487060",
"/  c #487068",
"(  c #507068",
")  c #587068",
"_  c #507868",
"`  c #507870",
"'  c #587870",
"]  c #606060",
"[  c #786860",
"{  c #607060",
"}  c #607068",
"|  c #687868",
" . c #707868",
".. c #607870",
"X. c #687870",
"o. c #787870",
"O. c #880000",
"+. c #804070",
"@. c #884078",
"#. c #805878",
"$. c #886078",
"%. c #588070",
"&. c #588078",
"*. c #688070",
"=. c #608078",
"-. c #608878",
";. c #788870",
":. c #788078",
">. c #708878",
",. c #808070",
"<. c #809078",
"1. c #889078",
"2. c #904880",
"3. c #984880",
"4. c #984888",
"5. c #985088",
"6. c #A05088",
"7. c #A05090",
"8. c #A05890",
"9. c #A85890",
"0. c #A85898",
"q. c #886880",
"w. c #986088",
"e. c #906888",
"r. c #987088",
"t. c #987890",
"y. c #A06090",
"u. c #A86098",
"i. c #B06898",
"p. c #B070A0",
"a. c #B878A8",
"s. c #688880",
"d. c #709080",
"f. c #789080",
"g. c #709088",
"h. c #789888",
"j. c #809080",
"k. c #889080",
"l. c #809088",
"z. c #809888",
"x. c #909880",
"c. c #98A088",
"v. c #80A090",
"b. c #88A090",
"n. c #88A098",
"m. c #88A898",
"M. c #90A090",
"N. c #90A898",
"B. c #98A898",
"V. c #A0A090",
"C. c #A0A890",
"Z. c #A8B098",
"A. c #A880A0",
"S. c #B080A0",
"D. c #B088A8",
"F. c #B888A8",
"G. c #90B0A0",
"H. c #98B0A0",
"J. c #98B8A8",
"K. c #A0B8A0",
"L. c #A0B0A8",
"P. c #A0B8A8",
"I. c #A8B8A8",
"U. c #B0B8A0",
"Y. c #B8B0A8",
"T. c #C090B0",
"R. c #C898B8",
"E. c #D090B8",
"W. c #A8C0A8",
"Q. c #B0C0A8",
"!. c #A8C0B0",
"~. c #B0C0B0",
"^. c #B0C8B0",
"/. c #B8C8B0",
"(. c #B8C8B8",
"). c #B8D0B8",
"_. c #C0C0A8",
"`. c #C0C8A8",
"'. c #C8C8B0",
"]. c #C0D0B0",
"[. c #C8D0B0",
"{. c #C0D0B8",
"}. c #C8D8B8",
"|. c #D0D8B8",
" X c #D898C0",
".X c #D0A0C0",
"XX c #D8A0C0",
"oX c #D8A0C8",
"OX c #D8A8C8",
"+X c #E0A8D0",
"@X c #E0B0D0",
"#X c #E8B0D0",
"$X c #E8B0D8",
"%X c #E8B8D8",
"&X c #F0B0D8",
"*X c #F0B8D8",
"=X c #F8B8E0",
"-X c #C0D8C0",
";X c #C8D8C0",
":X c #D8D8C0",
">X c #D0E0C0",
",X c #D8E0C0",
"<X c #D8E8C0",
"1X c #D8E8C8",
"2X c #E0E0C8",
"3X c #E0E8C8",
"4X c #E8E8C8",
"5X c #E0F0C8",
"6X c #E8F0C8",
"7X c #E0E0D8",
"8X c #E0F0D0",
"9X c #E8F0D0",
"0X c #E8F8D0",
"qX c #F0F0D0",
"wX c #F0F8D0",
"eX c #F0F8D8",
"rX c #F8F8D8",
"tX c #F8C0E0",
"yX c #F8C0E8",
"uX c #F8C8F0",
"iX c #F8F8E0",
"pX c #F8F8E8",
"aX c #F8F8F8",
/* pixels */
"                                                                                                                                ",
"                                                                                                                                ",
"                                                                                                                                ",
"                                                  8 8 8 8 8 8 8 8 8 8 8                                                         ",
"                                              8 8 $.XX$XuXuXuX=X#XR.F.Q 8 8                                                     ",
"                                        8 $.XXe.J ; o o o o > E .X*X$X$X$X*X*XQ 8                                               ",
"                                    8 w.E o * * * * = * * * * * * * p OX$X$X$X$X$X$X8                                           ",
"                              , 2 9 o 2 W 1 * * * * * * * , 3 e e < > o p e.$X$X$X#X$X#XE                                       ",
"                              , > @ d T.e.> * * * * * , l 5.7.9.7.3.@.s # X F.$X$X&X$X$X*X8                                     ",
"                            , & F.*Xq.@ * * * * * * * * # # # # * 2 i l 7.0.l p A.$X$X$X$X*X8                                   ",
"                        , * > =XF.i * * * * * * * e k l z z z l a , * * * & , z 3.D.$X$X$X$X*X*X                                ",
"                      , , 1 =Xt.* * * * * * h 6.7.5.5.5.5.5.5.5.5.5.7.4.f 2 * * * , D.$X$X$X$X$X*X                              ",
"                      , 1 D.*X> * * * * * * 7.5.5.5.5.5.5.5.5.5.5.5.5.6.7.4.f * * > 1 *X$X$X$X$X*X8                             ",
"                    , > *X*X9 * * * * * * * * z 6.5.5.5.5.5.5.5.5.5.5.5.5.5.5.6.6.3 * p OX$X$X$X$X$X8                           ",
"                  , * *X*XW * * * * * * * * * * * 6.5.5.5.5.5.5.5.5.5.5.5.5.5.5.5.5.5., o *X$X$X$X$X=XE                         ",
"                  , T.tXp * * * * * * * * * * * * * 6.5.5.5.5.5.5.5.5.5.5.5.5.5.5.5.5.5.5.1 $X$X&X$X$X*X8                       ",
"                  e.tXR.. # * * * * * * * * * * * * k 6.5.5.5.5.5.5.5.5.8.5.5.5.5.5.4.5.5.z *X$X#X$X$X$X8                       ",
"                , u X.L.W.P.o.o * * * * * * * * * * * , 6.5.5.5.5.5.6.u.*X*X5.5.5.8.*X Xp.5.5.#X*XQ $X$X*X                      ",
"                ' P.P.P.P.P.P.P.- & * * * * * * * * * * +.5.5.5.5.5.5.5.#X*XS.6.5.oX#X#X$XXX5.y.$XT.D.*X$X8                     ",
"              b h.P.P.P.P.P.P.P.P.l.& * * * * * * * * * & 7.5.5.5.5.5.5.5.5.5.5.6. X#X$X#X#XT.5.$X*Xo t.$XT.8                   ",
"              b N.P.P.P.P.P.P.P.P.P.- * * * * * * * * * * 5.5.5.5.5.5.5.5.5.5.5.5.a.#X$X$X$X#Xu.oX$Xg d $X*X8                   ",
"            b M P.P.P.P.P.P.P.P.P.P.!.X * * * * * * * * * e 5.5.5.5.5.5.5.5.5.5.5.4.*X$X#X$X&X%X8.$X+X8.+X*XA.                  ",
"            b ` I.P.P.P.P.P.P.P.P.P.P.M.: * * * * * * * * * f 5.5.5.5.5.5.5.5.5.5.5.u.*X#X$X#X*X3.$X*XT.9.*X#X                  ",
"            m ` W.P.P.P.P.P.P.P.P.P.P.P.I.o * * * * * * * * & 7.2.6.5.5.5.5.5.5.5.5.5.a.#X#X#X*X5.+X$X#X3.*XtX                  ",
"            m ` W.P.P.P.P.P.P.P.P.P.P.P.P.w * * * * * * * * * 6.l 7.5.5.5.5.5.5.5.5.5.5.u.*X*X*X5.E.$X$X3.+XyX                  ",
"            M ` P.P.P.P.P.P.P.P.P.P.P.P.P.P.+ * * * * * * * * h +.l 6.5.5.5.5.5.5.5.5.5.5.5.6.5.5.i.$X$X3.E.#XP                 ",
"            N ` I.P.P.P.P.P.P.P.P.P.P.P.P.P.).o * * * * * * * , 6.& @.5.5.5.5.5.5.5.5.5.5.5.5.5.5.4.$X$X7.W #.P                 ",
"            K ` W.P.P.P.P.P.P.P.P.P.P.P.P.P.>Xk.. * * * * * * * 9.* & 6.5.5.5.5.5.5.5.5.5.5.5.5.5.5.*X$Xw.> 8 P                 ",
"            K ` W.P.P.P.P.P.P.P.P.P.P.P.P.P.3XeXS * * * * * * * 6.3 * @.5.5.5.5.5.5.5.5.5.5.5.5.5.5.*X$XW & V P                 ",
"            m ` H.P.P.P.P.P.P.P.P.P.P.P.P.P.wXwXrX. * * * * * * +.@.> * 6.5.5.5.5.5.5.5.5.5.5.5.5.5.#X&X$.- |.P                 ",
"            c ` N.P.P.P.P.P.P.P.P.P.P.P.P.P.eXwXwX:X# * * * * * s 6.@.* * k 5.5.5.5.5.5.5.5.5.5.5.4.@X&XW V.pXP                 ",
"            b / v.P.P.P.P.P.P.P.P.P.P.P.P.P.eXwXwXwX1.. * * * * * 6.5., * * f 6.5.5.5.5.5.5.5.5.5.6.@X*X9 rXwX                  ",
"            b K d.P.P.P.P.P.P.P.P.P.P.P.P.P.rXwXwXwXeX[ * * * * * 6.5.+.* * * 2.5.5.5.5.5.5.5.5.5.2.@XuXV wX,X                  ",
"              b ` I.P.P.P.P.P.P.P.P.P.P.P.P.eXwXwXwXwXwXV * * * * f 6.5.p * * * * 6.6.7.7.7.6.5.5.& @Xp rXiX,.                  ",
"              b ` P.P.P.P.P.P.P.P.P.P.P.P.P.wXwXwXwXwXwXrXu X * * * , 6.5.4.* * i e * & & # 2.l * , ,.wXwX`.P                   ",
"                N d.W.P.h.' -.I.P.P.P.P.P.P.1XwXwXwXwXwXwXeX4XX * * * * z 3.9.< j s e z 3.z * * * ] wXwXeXP                     ",
"                c _ m.d.b q M H.P.P.P.P.P.P.>XwXwXwXwXwXwXwXwX1.# * * * * e +.5.7.7.5.+.f & * * . wXwXwXiXP                     ",
"                  K x :.!.P.b r !.P.P.P.P.P.~.wXwXwXwXwXwXwXwXwX3X: X * * * * * * * * * * * . w rXwXwXwXC.                      ",
"                  P.^.K.P.P.-XF f.!.P.P.P.P.P.rXwXwXwXwXwXwXwXwXwXwXrX,.# X & * * * * X X R iXwXwXwXwXiXP                       ",
"                c m.! U P.>XwXiX*.!.W.P.P.P.P.8XeXwXwXwXwXwXwXwXwXwXwXwXeXrX4X_.Z.Z.,XrXrXwXwXwXwXwXiX .                        ",
"                c -.^ . ~.W.eXrXI H.^.P.P.P.P.{.eXwXwXwXwXwXwXwXwXwXwXwXwXwXwXwXwXeXeXwXwXwXwXwXwXwX_.F                         ",
"                c &.5 O B !.9X0XU.Y ;XP.P.v !.P.^.wXwXwXwXwXwXwXwXwXwXwXwXwXwXwXwXwXwXwXwXwXwXwXwXrXP                           ",
"                c g.0 O O X.^.wXrX>X5XP.P.H.. B b.3XwXwXwXwXwXwXwXwXwXwXwXwXwXwXwXwXwXwXwXwX0XrX}.P                             ",
"                  P.! O O 6 P.rXwXwX8XP.P.P.b.(.-X7 K.eXwX0XwXwXwXwXwXwXwXwXwXwXwXwXwXwXwXeX_.4 N. .                            ",
"                  H.g.O O O !.wXwXwX1XL.P.P.P.0 7X-X7 ~ 5XrXwXwXwXwXwXwXwXwXwXwXwXwXwXwXwX9XO % F _.                            ",
"                  c P.4 O O !.wXwXiXx.H.P.P.P.!.} 7XH O.O.6 B |.rXwXwXwXwXwXwXwXwXwXeX[.V (.B P._.P                             ",
"                    F s.O O !.H.H.!. .N.W.P.P.P.^.] R $ O.aXaX-Xq 1X9XeXwXwXwXeXwXqXq :XaXV [.y 9X                              ",
"                      *.m.z.P.H.G.P.m N.!.P.P.P.1XrXU k.1.Z v ] Y.t H.P.!.^.).(.j.O.r.aXV.iXC rXP                               ",
"                      c !.P.*.' ' &.M M.!.P.P.P.<X_.,XeXwXrX{.| y 7 >.P.P.P.H.j.t O.G G V 3XB.iXP                               ",
"                          c c ! _ b D v.I.P.P.P.3X| eX0XwX|.[._.;.| :.Q.1X3XP.L.K.1XpXZ.pXC ) P                                 ",
"                                c c c -.P.P.P.P.>X<.wXwXwXwXwXwXwXeXeXwXwXwXrXwXwXwXeX[.2X                                      ",
"                                      r =.P.P.P.{.x.wXwXwXwXwXwXwXwXwX0XwXiXC.wXwXwXc.rXI                                       ",
"                                      r b P.P.P.~.x.wXwXwXwXwXwXwXwXwXI.wXrX{ wXwXwX{ U.P                                       ",
"                                      r &.r !.P.H.B.iXwXwX0XwXwXwXwXwXU b.Q.] iXrXk.I t                                         ",
"                                      r %.%.m *.K.B.wXwXwXwXwXwXwXwXwXwXwXwX:XC c.iXiXqX].P P                                   ",
"                                      r %.s.( %.K I V.iXwXwXwXwXwXwXwXwXwXq }.1X^.P.~.,XwXwX{.x.                                ",
"                                      r %.G.d.( %.K n [.wXwXwXwXwXwXwXwX6 0 (.P.!.P.| !./.rXZ.U P                               ",
"                                      I %.N.P.P.m.H.X.b t U.qXwXwXwXwXB q B.^.D       t C { wXeX[.P                             ",
"                                    ..K %.H.P.P.P.P.!.*.J._ K n C.3XiX0 L F         D 6XiXrXwXeX3XiXP                           ",
"                                r ..P.H.%.G.P.P.P.;XP.W.n !.b.` ` K M P           _.wX>X^.P.P.f.z.wXiX;.                        ",
"                                :.W.P.P.b.n.P.P.P.3XP.P.>.P.P.Q.=.h.f.I D D D D n ;X;XP.P.P.P.!.>XwXwXrX                        ",
"                              >.P.P.>XrX{.I.P.P.P.wX{.H.P.T X.>XeXrXU.b.P.P.(.| | P.P.P.h.` Z.iXwXwXwX0X'.                      ",
"                            N I.^.9XwXrX9XP.P.P.P.rXrX{.W.).|.b.wXwXwX'.C >.K.I X.P.B.r m U.eXwXrXiXwXwXwXT A #.e.Q #.e.8 8     ",
"                        r M m.^.rXeX;X!.!.!.!.!.).iXeXeXM P.^.Z.3X0XwXwXT '.`.o.C r z.iXrXwX;X~.N.~ rXwXwXrX;.& i 2.8.u.*XtXR.8 "
};
