/* XPM */
static char *cfc98bb6f20d4996c713b5eac374e86f3gJ9WX0Z0exVEDW0[] = {
/* columns rows colors chars-per-pixel */
"64 64 148 2 ",
"   c black",
".  c gray3",
"X  c #100808",
"o  c #101810",
"O  c #201008",
"+  c #281810",
"@  c #302020",
"#  c #481818",
"$  c #701010",
"%  c #482028",
"&  c #502828",
"*  c #582830",
"=  c #483030",
"-  c #583038",
";  c #602830",
":  c #682830",
">  c #603030",
",  c #603038",
"<  c #683038",
"1  c #683838",
"2  c #703038",
"3  c #683840",
"4  c #703840",
"5  c #783840",
"6  c gray25",
"7  c #604848",
"8  c #704040",
"9  c #784040",
"0  c #704048",
"q  c #784048",
"w  c #704848",
"e  c #784848",
"r  c #784850",
"t  c #705050",
"y  c #705858",
"u  c #B02020",
"i  c #803840",
"p  c #803848",
"a  c #883848",
"s  c #804048",
"d  c #884048",
"f  c #884848",
"g  c #904048",
"h  c #884850",
"j  c #984050",
"k  c #904850",
"l  c #805050",
"z  c #885050",
"x  c #885058",
"c  c #885858",
"v  c #905050",
"b  c #905058",
"n  c #985058",
"m  c #985858",
"M  c #A04858",
"N  c #A05058",
"B  c #A85058",
"V  c #805860",
"C  c #905860",
"Z  c #A05860",
"A  c #A85860",
"S  c #B05060",
"D  c #B05860",
"F  c #B85860",
"G  c #B05868",
"H  c #B85868",
"J  c #986060",
"K  c #906868",
"L  c #907878",
"P  c #A06060",
"I  c #A86068",
"U  c #A06868",
"Y  c #B06068",
"T  c #B86068",
"R  c #B06870",
"E  c #B86870",
"W  c #A07070",
"Q  c #A87070",
"!  c #B07878",
"~  c #B87878",
"^  c #C06068",
"/  c #C06070",
"(  c #C06870",
")  c #C86870",
"_  c #C86878",
"`  c #C07078",
"'  c #C87078",
"]  c #D07078",
"[  c #908070",
"{  c #D07080",
"}  c #D07880",
"|  c #D87880",
" . c #D87888",
".. c #E07880",
"X. c #B88080",
"o. c #A89090",
"O. c #B0A0A0",
"+. c #C88080",
"@. c #C08888",
"#. c #D88088",
"$. c #D08888",
"%. c #D08890",
"&. c #C89090",
"*. c #D09090",
"=. c #D89090",
"-. c #D09898",
";. c #D89898",
":. c #E08088",
">. c #E88088",
",. c #E09088",
"<. c #E08890",
"1. c #E88890",
"2. c #E09090",
"3. c #E09098",
"4. c #E89098",
"5. c #E09898",
"6. c #E89898",
"7. c #E898A0",
"8. c #C8B0A8",
"9. c #E0A0A0",
"0. c #E8A0A0",
"q. c #E8A0A8",
"w. c #E0A8A8",
"e. c #E8A8A8",
"r. c #F0A0A0",
"t. c #F8A0A8",
"y. c #F0A8A8",
"u. c #F8A8A8",
"i. c #F0A8B0",
"p. c #F8A8B0",
"a. c #E8B8B8",
"s. c #F0B0B0",
"d. c #F8B0B0",
"f. c #F8B0B8",
"g. c #F0B8B8",
"h. c #F8B8B8",
"j. c #F8B8C0",
"k. c #E0C0C0",
"l. c #F0C0C0",
"z. c #F8C0C0",
"x. c #F8C8C8",
"c. c #F0D0D0",
"v. c #F8D0D0",
"b. c #F8D8D8",
"n. c #F8E8D8",
"m. c #F8E0E0",
"M. c #F8E8E8",
"N. c #F8F0F0",
/* pixels */
"                                          e b.g.y.y.y.y.y.y.y.y.y.y.<.| | | | #.n ;                                             ",
"                                      e v.m.y.y.y.y.y.y.y.y.y.y.i.|  .| |  . .;                                                 ",
"                                      v.m.x.y.y.y.y.y.y.y.y.y.y.0.| | |  . .:.                                                  ",
"                                    e m.v.s.y.y.y.y.y.y.y.y.y.y.#.| | |  .#.d                                                   ",
"                                e &.m.x.y.y.y.y.y.y.y.y.y.y.y.#.| | |  .#.*                                                     ",
"                                K m.b.s.y.y.y.y.y.y.y.y.y.y.y.|  .| |  .n > ; ; ; ;                                             ",
"                                x.b.b.y.y.y.y.y.y.y.y.y.y.y.0. .| |  . .> ' #.| E k ;                                           ",
"                            e J b.b.l.y.y.y.y.y.y.y.y.y.y.7.| | |  . .Y  . . .| | | | #.A ;                                     ",
"                            e g.b.b.y.y.y.y.y.y.y.y.y.y.y.<.| | |  .#.,  . . .| |  .| | | s ;                                   ",
"                          l v.b.b.i.y.y.y.y.y.y.y.y.y.y.3.|  .|  .| > T  .| | | | | | | | | | }                                 ",
"                          -.m.b.x.y.y.y.y.y.y.y.y.y.y.y.#.| |  . .P ; | | | | | | | | | |  .|  .;                               ",
"                        , x.b.b.g.y.y.y.y.y.y.y.y.y.y.i.| | |  . .q d :.| | | | | | | | | | | | ' ;                             ",
"                    e q.8 m.b.b.y.y.y.y.y.y.y.y.y.y.y.y.| | | | #.* G | | | | | | | | | | | | | | ..s                           ",
"                    h.W c b.b.b.y.y.y.y.y.y.y.y.y.y.i.6.| | | | :.< H } | | | | | | | | | | | | | | }                           ",
"                  e d.e @.b.b.b.y.y.y.y.y.y.y.y.y.y.s.3. .| | | #.2 / } | | | | | | | | | | |  .| | | ;                         ",
"              e R v.X.e x.b.b.v.y.y.y.y.y.y.y.y.y.y.0.| | |  . .I D H ] | | | | | |  . .| |  . .( | | ( ;                       ",
"              e x.l.K J b.b.b.x.y.y.y.y.y.y.y.y.y.i.3.| | | | { % H ' | | | | |  .| | | | |  .| & ] | #.;                       ",
"              b.l.y.0 9.m.b.b.x.y.y.y.y.y.y.y.y.y.0. .|  . . .1 5 | | | | | |  .#.' | | | | | | . # T  .} ;                     ",
"            e m.y.i.8 e.m.b.b.z.y.y.y.y.y.y.y.y.y.6.| |  . .I s s | | | | | |  .8 s | | | | | | @ . q | #.g                     ",
"            e z.y.s.0 g.m.b.b.l.y.y.y.y.y.y.y.y.y.<.| | #.Z 4 5 ' | | | | | | R . & | | | | | | | E } | | ^                     ",
"          e c.y.y.y.x x.b.b.b.s.y.y.y.y.y.y.y.y.i.|  .#.f h 2 i.y.| | | |  .| ' O . Y | | | | | | | | | |  .;                   ",
"        e W M.y.y.y.m x.b.b.b.y.y.y.y.y.y.y.y.y.y.| #.Y b h R y.y.| | | |  .| #.Y & I #.| | | | | |  .| | | ;                   ",
"        e w.b.y.y.y.c x.b.b.b.s.y.y.y.y.y.y.y.y.0.#.E f k R d.y.i.|  .| |  . .| | | #.| | | | | | | | | | | ;                   ",
"        X.m.g.y.y.y.l x.b.b.b.f.y.y.y.y.y.y.y.y.#.' f v y.y.y.y.y.#.| | |  .| |  . .| | | | | | | | | | | | a ;                 ",
"        a.m.y.y.y.y.e z.b.b.b.g.y.y.y.y.y.y.s.6.| n b z i.y.y.y.y.<.|  .|  .| | | | | | | | | | | | | | | | j ;                 ",
"      e m.z.y.y.y.y.e 9.m.b.b.x.y.y.y.y.y.y.6.] Z f ;.y.y.e.i.* 6.<.|  . .| | | | | | | | | | | | | | | | | M ;                 ",
"      e m.h.0.! y.y.c W m.b.b.x.y.y.y.y.y.y.#.} n ;.s.y.y.e.y.. 3 2.}  .| | | | | | | | | | | | | | | | | | B ;                 ",
"      e b.s.6.@ y.y.+.Q b.b.b.v.y.y.y.y.y.y.| n b d.y.y.y.e.y.. . E #.| | | | | | | | | | | | | | | | | | | S -                 ",
"      e x.y.3 ! d.y.y.y.l.b.b.b.y.y.y.y.0.#.<.b.g.y.y.y.y.y.y.y.X.<.| | | | | | | | | | | | | | |  . .| ..P < & n A d ; ; ; ;   ",
"      e c.y.@.s.y.y.y.y.s.b.b.b.y.y.y.q.#.| v.v.y.y.y.y.y.y.y.y.s.#.| | | | | | | | | | | | | | |  .| Y | #.A k f b 1.:.( A d ; ",
"      e x.y.i.y.y.y.y.y.y.b.b.b.y.y.y.<.{ =.m.g.y.y.y.y.y.y.y.y.y.| | | | | | | | | | | | | | | | | | E :.| :.:.:.f 4 | | | | A ",
"      e x.y.y.y.y.y.y.y.y.g.b.l.s.y.<.#.x.n.z.y.y.y.y.y.y.y.y.3.| | | | | | | ' | | | | | | | | ..Y z y.y.y.y.#.| A D 4 | | | | ",
"      e v.y.y.y.y.y.y.y.y.y.s.y.7.#.] c.n.b.s.y.y.y.y.y.y.y.q.| | | | | | | | k | | |  .| | | | <.k +.e.y.y.y.#.#.* H j | | | | ",
"      & b.y.y.y.y.y.y.y.y.y.y.y.y.g.b.b.b.b.y.y.y.y.y.y.,.} 6.y.y.y.6.| | | | 4 #. .| |  .|  .' &.n u.y.i.b.g.#.:.. + H %.d.0.| ",
"    e &.b.s.y.y.y.y.y.y.y.y.y.y.s.v.b.b.b.b.y.y.y.y.i.5.z 5.y.y.y.3. .| | | #.8  . .| | | |  .n @.P d.y.s.v.g.#.>.. o D Q d.y.0.",
"  e 9.m.b.v.e.d.y.y.y.y.y.y.y.y.g.b.b.b.b.x.d.y.y.e.Q V y.y.y.y.t.| | | | | :.4  . .| | | | | n ~ P p.y.s.v.g.#.>.. . B C d.e.y.",
"e M.b.b.b.b.b.O.l 7 %.i.y.y.y.y.z.b.b.b.m.z.e l e k.z.y.y.y.y.| | | |  .:.R < #. . .| | | | G 4 ! E p.y.y.v.g.#.1.. . 5 e d.y.y.",
"e m.b.b.b.b.v.k.K C w W y.y.y.y.z.b.b.m.c.C z r O.s.y.y.y.y.2.| | | | E f < (  . .| | | |  .d 4 ! Y p.y.y.v.j.#.:.. . < e s.y.y.",
"e b.e.g.v.b.b.v.8.W w e c s.y.y.z.b.b.8.V e K k.m.y.y.y.y.<.| | | E , + d _ #. .| | | | | | h 5 ! Z u.y.y.z.g.#.:.. . < 4 7.y.y.",
"  e e ! y.d.y.l.v.b.z.@.C c X.s.g.m.o.y L 8.v.y.y.y.y.7.| | | Z & . . &  .| | | | | | | | } k p @.n r.y.y.i.7.#. .O . < & k ( 4.",
"      % , U 0.y.y.s.b.x.9.~ l +.a.o.y W k.m.s.y.y.i.6.| | ..( O . . . Z  .| | | | | | | |  .s a &.n 4.y.y.7.| | | % . 4 < 4 > | ",
"      e 8.h Y - +.y.y.y.y.y.y.l &.o.8.b.b.g.y.y.i.| #.} % $ u . . . k #.| | | | | | | | | | Z p %.h } | | | |  . .] # k I | { s ",
"      e M.L Z . + l y.y.y.y.e.1 m.m.m.b.x.y.y.y.3.| n % # . $ . . +  . .| | | | | | | | | | E d Y P E | | |  .| | | { d #. . .| ",
"      e M.k.w & . X Q y.y.y.! z b.v.b.z.y.y.y.2.:.> X . u $ u . . Y ' } | | | | | | | | | | } 9 v | | | |  . .} ) ) N < | | | | ",
"        z d.i.Y J . . . + 4.n Q c.z.s.y.y.s.( 3 O . . . = y X.#.E A _ / / _ | | | | | | | | | ' d j | } ] _ H N s & 9 | | | | ' ",
"        e ;.d., 0.7 . . . i U q p.q.y.y.d.<.& . . o = V ;.$.( h Z :.| | | | | | | | | | | | | | d 5 S T S j 4 , s , h | | | | D ",
"        e l d.J C s.. . . u # + y.d.y.=.P > ' - + 8 x J J K U  . .} | | | | | | | | | | | | | | 5 d M < 3 9 R ' / * n  .| | | H ",
"            e :.I 0 x.0.9.X.Y B A E ` h m v 0.y.x.m.m.z.3.|  . . . . .#.| | | | | | | | | | ) F i ; f |  . . .| #.< }  .| | / 8 ",
"            e 1.:.9 m.x.s.d.p.y.m m k n b ` s.y.y.x.g.0.}  . . . . . .| | | | | | | | | | | / F * n :.| | | | | #.b #. .| { j x ",
"              & 8 N ! b.n.y.d.y.c +.d.E 9 Y } }  .<. . . . . . . . . .| | | | | | | | | | ) H < #.|  .| |  .| :.k | | | T 1 ( 0 ",
"              0.w.L - a.m.y.y.0.c C y.q (  . . . . . . . . . . . . . .| | | | | | | | | | / M 1 | | | | |  .| ` 4 | | | 1 } Y ~ ",
"            e h.b.M.t J b.y.y.y.d.3.i. . . . . . . . . . . . . . . .} | | | | | | | | | | H < Z | |  .| |  .| s A | | ( ` :.q y.",
"            e x.b.b.m.W x z.y.y.y.y.y.<. . . . . . . . . . . . . .| | | | | | | | | |  .] > I | E T | | | :.` R n 8 * ` :.h 8 v.",
"          e ! v.b.b.v.e.8 v.y.y.y.y.y.y.y.y.#. . . . . . . . . . .| | | | | | | | | | | ) , #.| 1 N :.' m 3 4 q b > ( :.#.3 +.b.",
"          e $.b.b.b.l.d.! v.z.y.y.y.y.y.y.y.y.7. . . . . . . . .| | | | | | | | | | #.{ s n | ..5 D k - 4 n | #.:._ :.| | 8 0.b.",
"          e Q m.b.b.y.y.i.x v.j.y.i.y.y.y.y.y.y.y.:. . . . . .| | | | | | | |  .| #.q 2 k ' v 3 R ;.d. .| | | | | . . 0 | 1 9.b.",
"          e h m.v.b.y.y.y.w @.v.y.i.y.y.y.y.y.y.y.4. . . . . .| | | | | |  . .|  .} 5 ) 4 0 V *.d.s.3.| | | | | | R I | | , =.b.",
"          e Q m.b.b.y.y.y.6.v % f.y.y.y.y.y.y.y.y.y.7.<. . .|  .| | | | | | | E * N 2 t a.i.y.y.r.^ % #.| | | | | | | | | 4 U b.",
"          e 0.b.b.v.y.y.y.$.4 x 0 9.y.i.y.y.y.y.y.y.y.7. .| | | | | | | | | | > D M o.b.z.y.y.y.- O . | | | | | | | | | | n e b.",
"          e =.b.b.x.y.y.y.$.4 *.W - Q y.y.y.y.y.y.y.y.y. .| |  .| | |  .| #.h H i 0 m.s.0.y.y.y.q - ( | | | | | | | | | | ] 1 v.",
"          e l l.m.x.y.y.y.~ U s.1 [ N.7 $.i.i.y.y.y.y.y. .| |  . .| | #.4 d ) y m.b.d.i.y.y.y.<.| | | | | | | | | | | | | | h x.",
"            e z.n.x.y.y.y.~ @.y.O L M.8.w U s.e.j.g.y.s.| | |  . .| #.v p A : m.b.s.+.q.y.y.q.| | | | | | | | | | | | | | | ` i.",
"            e z.m.x.y.y.y.y.y.y.6 c.b.m.c.c ;.d.v.g.y.y.| | | | | _ 3 , q # V b.s.t.. @.d.y.3.| | | | | | | | | | | | | | | | $.",
"              R , -.y.y.y.y.y.s.b.b.b.v.y.y.m O l d.i.y.#.| | n , } ' 4 , k.m.y.d.t ;.y.y.i.<.| | | | | | | | | | | | | | | | 3 "
};
