/* XPM */
static char *_46013f88aed40e799122186beee94c5GrsJe1A7S6VcYVlQ[] = {
/* columns rows colors chars-per-pixel */
"64 64 76 1 ",
"  c black",
". c #000011",
"X c #120719",
"o c #092100",
"O c #002900",
"+ c #003100",
"@ c #033900",
"# c #153900",
"$ c #000022",
"% c #1A0E3A",
"& c #2B1632",
"* c #004200",
"= c #034A00",
"- c #184A00",
"; c #005200",
": c #025A00",
"> c #105200",
", c #1B5A00",
"< c #274900",
"1 c #225200",
"2 c #2B5A00",
"3 c #2F5117",
"4 c #006200",
"5 c #016A00",
"6 c #126200",
"7 c #1E6A00",
"8 c #137300",
"9 c #256200",
"0 c #2E6A00",
"q c #336200",
"w c #3C6A00",
"e c #287200",
"r c #207B00",
"t c #377200",
"y c #327A00",
"u c #435904",
"i c #486A00",
"p c #447200",
"a c #407A00",
"s c #4C7A00",
"d c #587A00",
"f c #341E4B",
"g c #32274A",
"h c #2B8300",
"j c #3B8300",
"k c #358B00",
"l c #488200",
"z c #448B00",
"x c #548200",
"c c #518A00",
"v c #5D8A00",
"b c #4C9300",
"n c #559B00",
"m c #688A00",
"M c #659200",
"N c #619B00",
"B c #6D9A00",
"V c #789A00",
"C c #6AA300",
"Z c #75A200",
"A c #72AB00",
"S c #7DAA00",
"D c #7AB300",
"F c #80A200",
"G c #88AA00",
"H c #85B200",
"J c #82BB00",
"K c #8DBB00",
"L c #90B200",
"P c #98BA00",
"I c #95C300",
"U c #A0C200",
"Y c #839987",
"T c #AEB8B8",
"R c #EAE0E0",
"E c #F8F8F8",
/* pixels */
"                                                                ",
"                                                                ",
"                            ***********                         ",
"                         *iLLLLLLLLLLLLLl*                      ",
"                        *lJHGLPLLLLLLLLLLZ**                    ",
"                      *yeeteeeejNKLLLLLLLLLLp*                  ",
"                      :eteeeeeeeezKLLLLLLLLLLw*                 ",
"                    *eeeeeeeeeeeeeeAKLLLLLLLLLP*                ",
"                    yeeeeeeeeeeeeeeeNLLLLLLLLLLL                ",
"                   eeeeeeeeeeeeeeeeetbLLKFLLLLLLL               ",
"                  *eeeeeeeeeeeeeeeeeeeLLLqLLLLLLL*              ",
"                 *eeeeeeeeeeeeeeeeeeee8NLLqKLLLLLLL             ",
"                 6eeeeeeeeeeeeeeeeeeeeerLLppLLLLLLP*            ",
"        *       *eeeeeeeeeeeeeeeeeeeeeeenLLVLLLLLLLK*           ",
"        j       *eeeeeeeeeeeeeeeeeeeeeeerKLLxHLLLLLL*           ",
"        6I      eeeeeeeeeeeeeeeeeeeeeeeeeSLLsPLLLLLLx*          ",
"        7l*    *eeeeeeeeeeeeeeeeeeeeeeeeecLLSGLLLLLLL2          ",
"        6yyD   *eeeeeeeeeeeeeeeeeeeeeeeeeePLL1BZPLLLLZ          ",
"        :*er*  ;eeeeeeeeeeeeeeeeeeeeeeeeeyZx1>126FLLLL*         ",
"        *y*9y* 6eeeeeeeeeeeeeeeeeeeeeeee;qPKc72=,GpZLL*         ",
"        *e7@eH*7eeeeeeeeeeee>eeeeeeeeee6wGq1qs#x+nU<LL*         ",
"        *y**=el2eeeeeeeeeeee*eeeeeeee6;Sq7SLLPdP>hSxLHw         ",
"        *y*@+y8L6eeeeeeeeee:*eeeeeeee=CV:eCLLLBLqyZwLHl         ",
"        *ri+*@eemeeeeeeeeee+9eeeeee=>b*eeenLLLLBL=*MLLZ         ",
"         ri+;+*eI;eeeeeeee5@eeeeeee>rMeeeebPLLPcLZmLLLF         ",
"         6x+e:@6eH-eeeeeee*9eeeeee=eh6eeeehLLLL7LLLLLLS******** ",
"         4M+e:=+eKZ=eeeee8+eeeeee9ey,eeeeezLLLL6LLLLLL1lZSLKLZx*",
"         =S+e=y>=jHw=eeee=7eeeee=ey@7eeeeehLLLL=LLLL2pKH-+m  **w",
"         *H#=ey7=rNF;>eee,eeeet;@yy+eeeeeejLLLL=LLLL2PK2-xK    *",
"         *SV78bl9:hI>eeeeeeeeeee;e>9eeeeeebLLLL=LLLxUB-wIH      ",
"         *nK*nLC=,rU>eeeeeeeeeeeee>eeeeeeenLLLL;LLLZw*pFH*      ",
"          4nKLK+@eeeteeeeeeeeeeeeeeeeeeeeeCLLLK6LLLKbK1K        ",
"          *rKLP@@eeeeeeeeeeeeeeeeee7q:eeetAKLLG7LLLLLGq*        ",
"            hKP+,eeeeeeee6eeeeeeeeee8Pq@eeHLLLMrLLLLPx*         ",
"            *nI+*eeeeeeeee>eeeeeeeeeeZKM*eLLLLZyLLLLKFo         ",
"             *rM*O@=eeeeeee9eeeeeeeeeeKGp*FKLPCjH11GLL*         ",
"             OwjG1@+eeeeeee@=eeeeeeeeeCPH2wZLKbb1xLLLLp         ",
"             O*78HHOeeeeeeee7+-;7eeeeeSLLLM-SnCHLLLLLLL*        ",
"             O*+yyCs,eeeeeeee=*Y36eeeeHLLLLGM1vLLLLLLLP*        ",
"             O@*+yten@eeeeeeee;EEE.6eezLLLLLLP<LLKKSAS*         ",
"             o*OO:yee*eeeeeeeeeREEg3-6ezLLLLLL<IKSCy6*          ",
"            O**7e8@e:*eeeeeee8@:66YEERu>hKLLLH-e=**             ",
"            @**eee4@@7eeeeeeee9*#7>cYEE6=nPPLMO@+*              ",
"           O*=eeeee=*eeeeeeeeeeerPp#>;6yy9@**gYY*               ",
"          O**7eeeeee*eeeeeeeeeeeeKLv2=9r67kr6TYc                ",
"          =*=eeeeeee>:eeeeeeeeeeeSLLLLLVMN2P-sc*                ",
"         O**7eeeeeee,=eeeeeeeeeeeGLLLLLLLP;A-LL*                ",
"         =*;eeeeeeeee*eeeeeeeeeeeKLLLLLLLLLL2Lp                 ",
"        O*=8eeeeeeeee6eeeeeeeeeeeKLLLLLLHCHLqH*                 ",
"        =*eeeeeeeeee,==yeeeeeeeejLHLLLLL2-eCv*                  ",
"       O**eeeeeeeeeee*e#eeeeeeeelLLLLLLLc+6nS                   ",
"      O**7eeeeeeeeeee>ee#reeeeeea0yGLLLLLLMq*                   ",
"     O+**eeeeeeeeeeee7ee*@eeeeeeeeeFLLLLLLU*                    ",
"   O**@*=eeeeeeeeeeeee=eee+eeeeeeee0HHLLLH                      ",
"  O=**@*:eeeeeeeeeeeee@eee=6eeeeeee0vLLKL*                      ",
" @*;:8+*eeeeeeeeeeeeee>eeee=+eeeeeeeeLLL*                       ",
"O=6eee+@eeeeeeeeeeeeeeteeee5=@eeeeeeyKL*                        ",
"eeeeee;+eeeeeeeeeeeeeee*eeenK;+eeeeenL                          ",
"eeeeee;@eeeeeeeeeeeeeee2eeezPS*@,eeeA*                          ",
"eeeeeee,*eeeeeeeeeeeeeeH7eeyHHL7*@@+*                           ",
"eeeeetee@eeeeeeeeeeeeeeH*yeeALLJh**sJ                           ",
"eeeee;ee,eeeeeeeeeeeeeezKqyezLLLLPPHL***                        ",
"eeeer*eee>eeeeeeeeeeeeerKL=ehLLLLLLLLqLH*&$$X                   ",
"eee8@=eeee,eeeeeeeeeeeeelHK=eLLLKnKqM#LLLL<.%f&                 "
};
